<svg id="Слой_1" data-name="Слой 1" xmlns="http://www.w3.org/2000/svg" viewBox="0 0 270.67 156.53"><defs><style>.cls-1{fill:#dd550a;}.cls-2{fill:#141414;}.cls-3{fill:#fff;}</style></defs><title>5lb_logo_RGB</title><path class="cls-1" d="M156.33,78.17A78.17,78.17,0,1,1,78.17,0a78.16,78.16,0,0,1,78.16,78.17"/><rect class="cls-2" x="167.54" y="42.12" width="11.21" height="78.32"/><path class="cls-3" d="M122.9,88.64a38.77,38.77,0,0,0-.56-5.92c-1-5.66-3.45-10.09-7.22-13.17-5.1-4.18-12.94-6.16-24.1-6.16H33.4V74.6H91.86c7.34,0,12.64,1.3,15.77,3.86,2.54,2.12,4.06,5.7,4.06,12.81s-1.35,12.23-4,14.45-8.09,3.53-15.81,3.53H63.65c-7.15,0-12.22-1.06-15.06-3.07-2.67-1.9-4-4.78-4-8.82V95.48H33.4v1.87c0,7.71,2.57,13.57,7.62,17.41s12.43,5.68,22.62,5.68H91.07c10.9,0,19-2,24-6.09s7.8-10.87,7.8-20Z"/><path class="cls-2" d="M263.26,69.22c-4.79-3.9-11.88-5.88-21.08-5.88h-41V42.11H190v78.33h11.21V74.55h39.46c6.63,0,11.55.19,14.49,2.35A10.51,10.51,0,0,1,259.46,86V97.57c0,4.39-1.35,7.5-4.14,9.52-2.55,1.82-6.93,2.12-13.24,2.15H212.37v11.2h29.81c9.36,0,16.5-2,21.22-5.9s7.27-9.71,7.27-17V86C270.67,78.86,268.18,73.22,263.26,69.22Z"/><rect class="cls-3" x="33.4" y="42.12" width="86.69" height="11.21"/></svg>