<svg id="Слой_1" data-name="Слой 1" xmlns="http://www.w3.org/2000/svg" viewBox="0 0 360.33 201.16"><defs><style>.cls-1{fill:#dd550a;}.cls-2{fill:#fff;}</style></defs><title>5lb_logo_RGB</title><path class="cls-1" d="M201.19,100.55A78.17,78.17,0,1,1,123,22.39a78.17,78.17,0,0,1,78.17,78.16"/><rect class="cls-2" x="212.39" y="64.51" width="11.21" height="78.32"/><path class="cls-2" d="M167.75,111a37.54,37.54,0,0,0-.56-5.92c-1-5.66-3.45-10.1-7.22-13.18-5.1-4.17-12.94-6.15-24.1-6.15H78.26V97h58.45c7.34,0,12.65,1.3,15.77,3.86,2.55,2.12,4.07,5.69,4.07,12.8s-1.35,12.24-4,14.46-8.09,3.52-15.82,3.52H108.5c-7.15,0-12.22-1.06-15-3.07s-4-4.78-4-8.81v-1.88H78.26v1.88c0,7.71,2.57,13.57,7.61,17.4s12.44,5.69,22.63,5.69h27.42c10.91,0,19-2.05,24-6.09s7.8-10.87,7.8-20C167.76,116.69,167.76,111.35,167.75,111Z"/><path class="cls-2" d="M308.12,91.61c-4.79-3.91-11.89-5.88-21.09-5.88H246V64.5H234.81v78.33H246V96.94h39.46c6.63,0,11.55.19,14.48,2.35a10.48,10.48,0,0,1,4.36,9.09V120c0,4.39-1.35,7.5-4.15,9.52-2.54,1.82-6.93,2.11-13.24,2.14h-29.7v11.21H287c9.36,0,16.5-2,21.23-5.9s7.27-9.71,7.27-17V108.38C315.53,101.25,313,95.61,308.12,91.61Z"/><path class="cls-2" d="M219,165c-3.5,0-6.94-1.55-6.94-5.8s3.52-5.81,6.67-5.81c2.85,0,5.64,1.21,6.36,4h-3.2a3.21,3.21,0,0,0-3.16-1.7c-2.33,0-3.5,1.36-3.5,3.56s1.38,3.55,3.77,3.55c1.84,0,2.84-.87,3.15-2h-3.43v-2.42h6.62C225.85,162.87,222.89,165,219,165Z"/><path class="cls-2" d="M228.94,161.12a2.25,2.25,0,0,0,2.42,1.88,2.19,2.19,0,0,0,2.19-1.15h2.5c-.53,2.26-2.58,3.11-4.69,3.11-2.39,0-5-1.28-5-4.48s2.61-4.47,5-4.47,5.07,1.45,4.82,5.11Zm.11-1.66h4.5a2,2,0,0,0-2.19-1.49A2.25,2.25,0,0,0,229.05,159.46Z"/><path class="cls-2" d="M241,158.05v3.36c0,1.16.59,1.38,2.44,1.14v2.18a11,11,0,0,1-1.68.13c-3.07,0-3.57-1.32-3.57-3.45v-3.36h-1.55v-1.8h1.55V154H241v2.21h2.44v1.8Z"/><path class="cls-2" d="M252.84,158.05v3.36c0,1.16.59,1.38,2.44,1.14v2.18a11,11,0,0,1-1.68.13c-3.07,0-3.57-1.32-3.57-3.45v-3.36h-1.55v-1.8H250V154h2.81v2.21h2.44v1.8Z"/><path class="cls-2" d="M266.36,160.48c0,3.28-2.71,4.48-5.15,4.48s-5.14-1.2-5.14-4.48,2.71-4.47,5.14-4.47S266.36,157.2,266.36,160.48Zm-2.68,0a2.48,2.48,0,1,0-2.47,2.52A2.29,2.29,0,0,0,263.68,160.48Z"/><path class="cls-2" d="M281.19,159.11v5.62h-2.82v-5c0-.94-.57-1.65-1.84-1.65s-1.89.71-1.89,1.65v5h-2.81v-8.48h2.81v1.21A3.66,3.66,0,0,1,277.7,156C279.84,156,281.19,157.2,281.19,159.11Z"/><path class="cls-2" d="M285,161.12a2.25,2.25,0,0,0,2.42,1.88,2.2,2.2,0,0,0,2.19-1.15h2.5c-.53,2.26-2.58,3.11-4.69,3.11-2.39,0-5-1.28-5-4.48s2.61-4.47,5-4.47,5.06,1.45,4.81,5.11Zm.11-1.66h4.5a2,2,0,0,0-2.19-1.49A2.25,2.25,0,0,0,285.13,159.46Z"/><path class="cls-2" d="M302.91,164.73h-3.26l-2-2.69-2.05,2.69H292.3l3.59-4.29-3.35-4.19h3.26l1.8,2.58,1.81-2.58h3.25l-3.36,4.19Z"/><path class="cls-2" d="M307.6,158.05v3.36c0,1.16.59,1.38,2.44,1.14v2.18a11,11,0,0,1-1.67.13c-3.08,0-3.58-1.32-3.58-3.45v-3.36h-1.55v-1.8h1.55V154h2.81v2.21H310v1.8Z"/><path class="cls-2" d="M215.21,167.59v11.1h-2.82v-11.1Z"/><path class="cls-2" d="M219,175.08a2.26,2.26,0,0,0,2.43,1.88,2.17,2.17,0,0,0,2.18-1.15h2.5c-.53,2.26-2.57,3.11-4.68,3.11-2.39,0-5-1.28-5-4.48s2.61-4.47,5-4.47,5.06,1.45,4.81,5.11Zm.11-1.66h4.5a2,2,0,0,0-2.18-1.49A2.27,2.27,0,0,0,219.14,173.42Z"/><path class="cls-2" d="M236.85,170.21,233,178.69h-2.61l-3.89-8.48h2.93l2.26,5.6,2.28-5.6Z"/><path class="cls-2" d="M239.43,175.08a2.25,2.25,0,0,0,2.42,1.88,2.2,2.2,0,0,0,2.19-1.15h2.5c-.53,2.26-2.58,3.11-4.69,3.11-2.39,0-5-1.28-5-4.48s2.61-4.47,5-4.47,5.06,1.45,4.81,5.11Zm.11-1.66H244a2,2,0,0,0-2.19-1.49A2.25,2.25,0,0,0,239.54,173.42Z"/><path class="cls-2" d="M250.76,167.59v11.1H248v-11.1Z"/><rect class="cls-2" x="78.26" y="64.51" width="86.69" height="11.21"/></svg>